<?xml version="1.0" encoding="utf-8"?>
<!-- Generator: Adobe Illustrator 27.9.0, SVG Export Plug-In . SVG Version: 6.00 Build 0)  -->
<svg version="1.1" id="Layer_1" xmlns="http://www.w3.org/2000/svg" xmlns:xlink="http://www.w3.org/1999/xlink" x="0px" y="0px"
	 viewBox="0 0 876.89 603.31" style="enable-background:new 0 0 876.89 603.31;" xml:space="preserve">
<g>
	<path d="M278.56,162.44c-0.41-1.98-0.56-2.34-0.56-2.71c0.15-14.82-4.31-32.06,1.82-43.73c5.59-10.63,22.58-15.39,34.72-22.44
		c21.8-12.67,43.83-24.96,65.55-37.78c5.43-3.2,9.6-3.37,15.15-0.12c31.69,18.54,63.7,36.54,95.31,55.21
		c3.36,1.98,6.58,7.06,6.84,10.9c0.85,12.93,0.32,25.94,0.32,41c-4.55-2.31-8.01-3.88-11.29-5.75
		c-30.25-17.32-60.57-34.54-90.62-52.2c-5.89-3.46-10.27-3.42-16.12,0.01c-30.06,17.64-60.37,34.87-90.62,52.2
		C285.94,158.82,282.66,160.33,278.56,162.44z"/>
	<path d="M320.19,328.26c-14.09-8.12-26.65-15.04-38.78-22.65c-2.13-1.33-3.46-5.51-3.47-8.39c-0.23-37.9-0.29-75.8,0.09-113.7
		c0.03-3.26,2.66-7.85,5.45-9.51c32.9-19.46,66.04-38.53,99.23-57.51c2.18-1.25,5.98-2.07,7.89-1.02
		c12.93,7.1,25.55,14.75,39.5,22.95c-34.31,19.69-66.96,38.7-99.93,57.13c-7.36,4.11-10.37,8.59-10.22,17.33
		c0.59,33.8,0.24,67.62,0.24,101.44C320.19,318.31,320.19,322.28,320.19,328.26z"/>
	<path d="M483.97,375.13c-13.52,7.79-25.27,14.92-37.41,21.28c-2.58,1.35-7.27,1.11-9.87-0.37c-32.92-18.71-65.73-37.65-98.28-57
		c-3.03-1.8-5.8-6.86-5.84-10.43c-0.41-37.54-0.32-75.08-0.04-112.62c0.02-3.18,1.58-7.75,3.96-9.27
		c11.79-7.52,24.1-14.23,37.76-22.12c0.25,5.72,0.57,9.63,0.57,13.54c0.04,34.2,0.3,68.4-0.17,102.59
		c-0.11,8.22,2.72,12.52,9.76,16.47c29.47,16.52,58.59,33.67,87.81,50.63C475.69,369.84,479.04,372.06,483.97,375.13z"/>
	<path d="M509.3,234.04c0-13.35,0-24.71,0-36.07c0-26.36-0.33-52.73,0.2-79.08c0.16-8.06-2.2-12.61-9.37-16.63
		c-30.1-16.84-59.83-34.34-89.67-51.64c-3.1-1.79-6.04-3.85-10.44-6.67c13.66-7.89,25.93-15.28,38.57-21.98
		c2.17-1.15,6.39-0.19,8.86,1.22c32.85,18.76,65.63,37.64,98.16,56.96c3,1.78,5.77,6.74,5.81,10.25c0.42,37.5,0.33,75,0.11,112.5
		c-0.02,2.9-1.25,7.14-3.36,8.46C536.02,218.97,523.45,225.89,509.3,234.04z"/>
	<path d="M563.06,91.3c14.06,8.08,26.4,14.79,38.22,22.29c2.37,1.5,3.94,6.05,3.96,9.2c0.27,37.53,0.33,75.07-0.1,112.6
		c-0.04,3.46-3.01,8.28-6.04,10.08c-32.24,19.14-64.7,37.9-97.32,56.4c-2.9,1.65-8.02,2.17-10.83,0.72
		c-12.18-6.28-23.88-13.48-36.99-21.06c3.47-2.29,6.01-4.14,8.71-5.7c30.51-17.7,60.91-35.58,91.66-52.84
		c6.81-3.82,8.96-8.15,8.89-15.71C562.86,169.41,563.06,131.52,563.06,91.3z"/>
	<path d="M386.12,255.87c31.13,18.01,60.67,33.58,88.47,51.8c15.59,10.21,27.14,9.66,42.44-0.19
		c27.97-18.02,57.42-33.76,88.28-51.62c0,16.65,0.23,31.58-0.27,46.49c-0.07,2.01-3.51,4.38-5.87,5.76
		c-32.35,18.87-64.68,37.77-97.33,56.11c-3.25,1.83-9.38,1.66-12.69-0.21c-32.32-18.17-64.38-36.8-96.31-55.65
		c-2.97-1.75-6.25-5.82-6.41-8.96C385.72,285.74,386.12,272.04,386.12,255.87z"/>
	<path d="M546.27,448.62c6.09,0,11.51,0,17.92,0c0,16.79,0,33.02,0,49.98c18.61,0,36.23,0,55.26,0c0-16.68,0-33.17,0-50.09
		c6.83,0,12.26,0,18.34,0c0,39.27,0,78.08,0,116.79c-17.12,4.47-18.25,3.62-18.26-13.15c-0.01-11.41,0-22.82,0-34.84
		c-18.57,0-35.87,0-54.78,0c0,16.06,0,32.15,0,49.02c-6.95,0-12.32,0-18.48,0C546.27,527.29,546.27,488.48,546.27,448.62z"/>
	<path d="M436.99,488.47c0.5-3.02,0.95-5.76,1.48-8.97c5.5,0,10.86,0,16.77,0c0,29.01,0,57.44,0,86.76c-5.57,0-10.87,0-16.71,0
		c-0.49-3.14-0.97-6.18-1.51-9.58c-23.72,16.23-44.96,15.16-61.31-2.53c-14.72-15.93-15.1-45.16-0.81-61.52
		C391.19,473.98,412.17,472.43,436.99,488.47z M438.18,522.34c-0.17-17.02-11.3-29.1-26.98-29.31
		c-16.59-0.22-29.21,12.88-28.91,30.03c0.29,16.93,12.37,29.32,28.56,29.3C427.04,552.34,438.36,539.9,438.18,522.34z"/>
	<path d="M32.69,540.48c4.7-2.5,8.91-4.73,13.54-7.19c7.14,12.9,17,21,32.27,19.18c8.71-1.04,15.96-4.97,17.75-14.3
		c1.69-8.77-2.8-15.25-10.47-18.99c-7.3-3.56-15.07-6.15-22.56-9.33c-23.27-9.88-32.52-28.34-23.18-46.09
		c9.14-17.38,36.23-23.82,54.87-12.12c6.88,4.32,12.18,11.14,19.5,18.05c-6.46,3.6-10.51,5.86-11.65,6.49
		c-10.99-5.24-19.25-10.91-28.33-13.01c-8.27-1.91-16.54,2.12-18.83,11.71c-2.19,9.18,3.5,14.73,11.12,18.24
		c8.42,3.87,17.21,6.92,25.6,10.83c17.61,8.2,25.35,20.9,22.79,36.59c-2.55,15.63-15.21,26.08-34.16,28.2
		C57.33,571.4,40.98,562.14,32.69,540.48z"/>
	<path d="M276.59,529.46c-22.98,0-45.45,0-68.03,0c2.71,23.13,26.74,30.3,52.92,16.28c2.9,2.71,6.04,5.64,9.14,8.53
		c-12.76,16.03-40.45,19.11-60.31,7.27c-19.23-11.46-26.93-35.08-18.38-56.37c7.89-19.64,31.78-32.11,51.93-27.1
		C267.23,483.89,279.33,501.99,276.59,529.46z M259.3,515.47c-0.11-13.06-9.98-22.33-24.12-22.84
		c-13.96-0.51-24.86,8.69-26.35,22.84C225.69,515.47,242.49,515.47,259.3,515.47z"/>
	<path d="M849.8,529.49c-22.96,0-45.41,0-67.99,0c3.03,23.17,26.68,30.21,53.07,16.28c2.88,2.7,6.01,5.63,9.09,8.52
		c-12.81,16.01-40.57,19.07-60.34,7.24c-19.23-11.5-26.89-35.07-18.34-56.35c7.88-19.6,31.74-32.06,51.91-27.11
		C840.58,483.82,852.36,501.52,849.8,529.49z M781.44,515.19c17.97,0,35,0,52.24,0c-3.09-14.58-12-22.23-25.38-22.57
		C795,492.28,784.92,500.41,781.44,515.19z"/>
	<path d="M158.27,478.24c6.13,0.45,11.56,0.85,17.66,1.3c0,4.24,0,8.13,0,13.09c-5.67,0.56-11.37,1.13-18.22,1.81
		c0,16.73-0.61,32.98,0.2,49.17c0.61,12.2,10.75,6.58,20.64,7.88c-2.7,5.66-3.74,12.77-7.44,14.65
		c-10.97,5.58-25.22,0.98-28.89-8.36c-1.97-5.03-2.61-10.83-2.73-16.3c-0.35-15.21-0.12-30.43-0.12-46.32
		c-3.75-0.95-7.15-1.8-11.26-2.84c0-3.75,0-7.69,0-12.33c3.32-0.63,6.79-1.29,10.77-2.04c0.31-6.5,0.6-12.7,0.93-19.73
		c5.58,0,10.88,0,17,0C157.3,464.86,157.77,471.33,158.27,478.24z"/>
	<path d="M529.06,494.27c-25.46,2.51-35.82,13.77-35.97,38.31c-0.07,11.05-0.01,22.1-0.01,33.8c-6.64,0-11.97,0-17.93,0
		c0-29.16,0-57.55,0-86.71c5.76,0,11.09,0,17.2,0c0.4,4.83,0.79,9.51,1.38,16.48c9.01-13.06,19.53-20.53,35.33-18.62
		C529.06,482.92,529.06,488.24,529.06,494.27z"/>
	<path d="M695.88,479.41c6.62,0,11.37,0,16.68,0c0.56,5.35,1.08,10.29,1.78,16.99c9.07-13.54,19.64-20.9,35.56-18.75
		c0,5.47,0,10.52,0,16.1c-4.54,0.91-9.28,1.41-13.72,2.83c-14.18,4.52-22.1,15.63-22.63,32.16c-0.39,12.18-0.08,24.37-0.08,37.47
		c-6.37,0-11.66,0-17.6,0C695.88,537.12,695.88,508.42,695.88,479.41z"/>
	<path d="M294.02,446.78c5.74,0,10.76,0,16.68,0c0,39.78,0,79.22,0,119.52c-5.47,0-10.75,0-16.68,0
		C294.02,526.56,294.02,487.36,294.02,446.78z"/>
	<path d="M331.89,446.57c5.8,0,10.56,0,16.16,0c0,39.86,0,79.36,0,119.72c-5.31,0-10.59,0-16.16,0
		C331.89,526.17,331.89,486.39,331.89,446.57z"/>
	<path d="M675.65,566.48c-5.54,0-10.59,0-16.53,0c0-28.68,0-57.13,0-86.58c5.02,0,10.35,0,16.53,0
		C675.65,508.35,675.65,537.08,675.65,566.48z"/>
	<path d="M659.06,446.53c6.02,0,10.75,0,16.45,0c0,4.78,0,9.31,0,14.81c-5.09,0-10.36,0-16.45,0
		C659.06,456.68,659.06,452.14,659.06,446.53z"/>
</g>
</svg>
